<?xml version="1.0" standalone="no"?>
<!DOCTYPE svg PUBLIC "-//W3C//DTD SVG 20010904//EN"
 "http://www.w3.org/TR/2001/REC-SVG-20010904/DTD/svg10.dtd">
<svg version="1.0" xmlns="http://www.w3.org/2000/svg"
 width="180.000000pt" height="180.000000pt" viewBox="0 0 180.000000 180.000000"
 preserveAspectRatio="xMidYMid meet">
<metadata>
Created by potrace 1.16, written by Peter Selinger 2001-2019
</metadata>
<g transform="translate(0.000000,180.000000) scale(0.100000,-0.100000)"
fill="#000000" stroke="none">
<path d="M1125 1363 c-63 -16 -175 -94 -175 -122 0 -6 -6 -11 -14 -11 -18 0
-13 -32 9 -66 22 -34 65 -38 265 -24 143 10 194 10 255 1 133 -22 211 -55 236
-102 12 -23 -11 -76 -50 -114 -17 -16 -31 -34 -31 -40 -1 -15 -142 -112 -203
-140 -29 -13 -83 -32 -120 -42 -56 -15 -69 -16 -76 -4 -11 17 20 101 56 155
42 61 174 191 218 215 l40 22 -35 -7 c-35 -7 -79 -32 -80 -46 0 -5 -6 -8 -13
-8 -7 0 -33 -17 -58 -37 -25 -21 -61 -49 -79 -63 -47 -35 -120 -112 -120 -127
0 -7 -4 -13 -10 -13 -5 0 -10 -6 -10 -12 0 -7 -9 -24 -20 -38 -24 -30 -25 -40
-5 -40 8 0 15 -4 15 -10 0 -5 22 -19 49 -32 27 -12 48 -25 46 -28 -2 -4 17 -7
43 -8 34 -2 64 6 109 27 34 16 64 27 67 24 3 -4 6 -1 6 5 0 7 23 22 50 34 28
12 50 25 50 30 0 4 7 8 15 8 8 0 32 16 54 35 21 19 43 35 49 35 6 0 12 3 14 8
2 4 22 22 44 39 23 18 49 48 58 68 15 31 15 38 2 62 -49 95 -195 163 -348 163
-46 0 -101 5 -123 10 -22 6 -62 13 -90 16 -27 2 -58 7 -67 10 -10 3 -18 2 -18
-3 0 -8 -82 -6 -109 3 -10 3 -5 13 20 34 19 16 40 29 47 30 6 0 12 5 12 11 0
5 4 8 10 4 5 -3 37 3 71 15 58 19 64 19 81 3 10 -9 18 -22 18 -30 0 -19 34
-16 61 6 21 17 22 20 8 41 -24 36 -161 68 -224 53z"/>
<path d="M177 1320 c-3 -11 -19 -28 -37 -37 -70 -39 -80 -51 -80 -101 0 -45 2
-49 42 -75 49 -32 59 -22 32 29 -14 25 -16 39 -8 50 15 24 29 18 32 -13 2 -15
12 -70 22 -121 19 -93 19 -94 0 -133 -17 -32 -18 -42 -8 -59 7 -11 18 -20 24
-20 6 0 17 -7 24 -15 16 -19 80 -20 80 -2 0 7 -9 32 -20 55 -19 40 -18 63 6
91 3 3 95 -51 117 -70 34 -28 147 -97 147 -89 0 5 17 -7 38 -27 20 -20 51 -42
67 -49 17 -7 45 -24 64 -38 19 -14 42 -26 50 -26 9 -1 41 -9 71 -20 48 -17
203 -29 188 -15 -2 3 -49 14 -104 25 -114 23 -137 32 -219 79 -60 34 -190 132
-211 157 -6 8 -15 14 -20 14 -5 0 -16 9 -24 21 -8 11 -36 34 -62 50 -42 27
-46 33 -35 50 6 10 17 19 24 19 6 0 13 3 15 8 3 7 39 27 181 98 96 49 110 71
55 92 -26 9 -37 9 -65 -4 -18 -9 -33 -20 -33 -25 0 -5 -12 -15 -27 -24 -16 -9
-41 -24 -58 -35 -16 -11 -63 -38 -102 -61 -48 -27 -73 -47 -73 -59 0 -15 -28
-50 -31 -39 0 2 -3 13 -5 24 -3 11 -8 67 -11 125 -5 104 -5 105 22 132 l27 27
-37 16 c-48 19 -52 19 -58 -5z"/>
<path d="M138 513 c-18 -3 -28 -10 -28 -21 1 -47 -18 -46 566 -33 911 19 1062
24 1024 33 -41 9 -564 14 -760 6 -74 -3 -107 -3 -72 -1 34 2 62 8 62 13 0 9
-737 12 -792 3z"/>
</g>
</svg>
