<?xml version="1.0" standalone="no"?>
<!DOCTYPE svg PUBLIC "-//W3C//DTD SVG 20010904//EN"
 "http://www.w3.org/TR/2001/REC-SVG-20010904/DTD/svg10.dtd">
<svg version="1.0" xmlns="http://www.w3.org/2000/svg"
 width="167.000000pt" height="180.000000pt" viewBox="0 0 167.000000 180.000000"
 preserveAspectRatio="xMidYMid meet">
<metadata>
Created by potrace 1.16, written by Peter Selinger 2001-2019
</metadata>
<g transform="translate(0.000000,180.000000) scale(0.100000,-0.100000)"
fill="#000000" stroke="none">
<path d="M1050 1366 c-19 -7 -46 -18 -60 -24 -30 -13 -100 -77 -100 -91 0 -6
-6 -11 -14 -11 -18 0 -13 -32 9 -66 22 -34 65 -38 265 -24 143 10 194 10 255
1 133 -22 211 -55 236 -102 12 -23 -11 -76 -50 -114 -17 -16 -31 -34 -31 -40
-1 -15 -142 -112 -203 -140 -29 -13 -83 -32 -120 -42 -56 -15 -69 -16 -76 -4
-11 17 20 101 56 155 42 61 174 191 218 215 l40 22 -35 -7 c-35 -7 -79 -32
-80 -46 0 -5 -6 -8 -13 -8 -7 0 -33 -17 -58 -37 -25 -21 -61 -49 -79 -63 -46
-34 -116 -109 -132 -140 -7 -14 -20 -37 -30 -52 -22 -32 -22 -38 -4 -38 8 0
16 -7 20 -15 3 -8 12 -15 20 -15 8 0 29 -12 47 -27 18 -16 29 -21 25 -13 -7
12 -6 13 5 3 23 -22 86 -15 148 17 32 16 61 26 65 23 3 -4 6 -1 6 5 0 7 23 22
50 34 28 12 50 25 50 30 0 4 7 8 15 8 8 0 32 16 54 35 21 19 44 35 50 35 6 0
11 3 11 8 0 4 14 16 30 27 30 20 30 21 30 115 l0 95 -57 32 c-89 48 -152 61
-318 67 -175 6 -158 4 -150 15 3 6 -31 10 -85 10 -50 0 -95 3 -101 7 -12 7 48
63 69 64 6 0 12 5 12 11 0 5 4 8 10 4 5 -3 37 3 71 15 58 19 64 19 81 3 10 -9
18 -22 18 -30 0 -18 30 -17 58 3 27 18 27 25 5 53 -12 15 -41 27 -88 36 -84
18 -100 18 -145 1z"/>
<path d="M117 1330 c-3 -11 -19 -28 -37 -37 -70 -39 -80 -51 -80 -101 0 -45 2
-49 42 -75 49 -32 59 -22 32 29 -14 25 -16 39 -8 50 15 24 29 18 32 -13 2 -15
12 -71 22 -123 18 -92 18 -95 -1 -132 -16 -31 -17 -41 -7 -58 7 -11 18 -20 24
-20 6 0 17 -7 24 -15 16 -19 80 -20 80 -2 0 7 -9 32 -20 55 -19 40 -18 63 6
91 3 3 95 -51 117 -70 34 -28 147 -97 147 -89 0 5 16 -7 37 -26 34 -32 153
-101 153 -88 0 3 7 -2 16 -10 20 -20 45 -21 38 -1 -4 8 -10 13 -14 10 -4 -3
-13 2 -20 10 -7 8 -17 15 -23 15 -18 0 -178 116 -252 182 -11 10 -32 28 -46
41 -15 13 -43 34 -63 47 -29 17 -34 25 -26 36 13 15 196 124 209 124 5 0 29
12 55 26 54 30 59 55 15 71 -36 14 -55 8 -103 -32 -37 -31 -64 -48 -183 -116
-48 -27 -73 -47 -73 -59 0 -15 -28 -50 -31 -39 0 2 -3 13 -5 24 -3 11 -8 67
-11 125 -5 104 -5 105 22 132 l27 27 -37 16 c-48 19 -52 19 -58 -5z"/>
<path d="M78 523 c-18 -3 -28 -10 -28 -21 1 -47 -17 -46 561 -33 923 20 1067
24 1029 33 -41 9 -564 14 -760 6 -74 -3 -107 -3 -72 -1 34 2 62 8 62 13 0 9
-736 12 -792 3z"/>
</g>
</svg>
